# xmcd CD database file
#
# Track frame offsets:
#	150
#	9552
#	23252
#	39077
#	58427
#	77452
#	89190
#	100140
#	121795
#	138840
#	163777
#	181827
#	198140
#
# Disc length: 2825 seconds
#
# Revision: 0
# Processed by: cddbd v1.5.2PL0 Copyright (c) Steve Scherf et al.
# Submitted via: CDex 1.51
#
DISCID=960b070d
DTITLE=Sir Roland Hanna - Plays The Music Of Alec Wilder
DYEAR=1978
DGENRE=Jazz
TTITLE0=You're Free
TTITLE1=Moon And Sand
TTITLE2=Mimosa And Me
TTITLE3=Ellen
TTITLE4=Blackberry Winter
TTITLE5=The Starlighter
TTITLE6=The Star Wish
TTITLE7=It's So Peaceful In The Country
TTITLE8=While We Were Young
TTITLE9=I'll Be Around
TTITLE10=That's My Girl
TTITLE11=Sounds Around The House
TTITLE12=Remember My Child
EXTD=YEAR: 1978
EXTT0=
EXTT1=
EXTT2=
EXTT3=
EXTT4=
EXTT5=
EXTT6=
EXTT7=
EXTT8=
EXTT9=
EXTT10=
EXTT11=
EXTT12=
PLAYORDER=
